<?xml version="1.0"?><svg id="Layer_1" style="enable-background:new 0 0 128 128;" version="1.1" viewBox="0 0 128 128" xml:space="preserve" xmlns="http://www.w3.org/2000/svg" xmlns:xlink="http://www.w3.org/1999/xlink"><path d="M64,1C29.26,1,1,29.26,1,64c0,12.01,3.39,23.69,9.81,33.77c0.89,1.4,2.74,1.81,4.14,0.92c1.4-0.89,1.81-2.74,0.92-4.14  C10.07,85.43,7,74.86,7,64C7,32.57,32.57,7,64,7s57,25.57,57,57c0,10.96-3.12,21.61-9.02,30.79c-0.9,1.39-0.49,3.25,0.9,4.15  c0.5,0.32,1.06,0.48,1.62,0.48c0.99,0,1.95-0.49,2.53-1.38C123.55,87.89,127,76.12,127,64C127,29.26,98.74,1,64,1z"/><path d="M21.78,106.13l-0.29,0.32c-1.11,1.23-1.02,3.12,0.21,4.24C33.3,121.21,48.32,127,64,127s30.7-5.79,42.3-16.32  c1.23-1.11,1.32-3.01,0.21-4.24c-0.05-0.05-0.1-0.1-0.15-0.15c-0.07-0.09-0.16-0.19-0.24-0.27c-23.22-23.23-61.02-23.23-84.24,0  C21.84,106.06,21.81,106.09,21.78,106.13z M99.84,108.33C89.72,116.52,77.11,121,64,121s-25.72-4.48-35.84-12.67  C48.47,90.02,79.53,90.02,99.84,108.33z"/><path d="M87,54c0-12.68-10.32-23-23-23S41,41.32,41,54s10.32,23,23,23S87,66.68,87,54z M47,54c0-9.37,7.63-17,17-17s17,7.63,17,17  s-7.63,17-17,17S47,63.37,47,54z"/></svg>